<svg version="1.2" xmlns="http://www.w3.org/2000/svg" viewBox="0 0 192 192" width="192" height="192">
	<title>vk-1-logo-svgrepo-com-svg</title>
	<defs>
		<clipPath clipPathUnits="userSpaceOnUse" id="cp1">
			<path d="m66.6 0h58.9c53.8 0 66.5 12.8 66.5 66.6v58.9c0 53.8-12.8 66.5-66.6 66.5h-58.9c-53.8 0-66.5-12.8-66.5-66.6v-58.9c0-53.7 12.8-66.5 66.6-66.5z"/>
		</clipPath>
	</defs>
	<style>
		.s0 { fill: #5181b8 } 
		.s1 { fill: #ffffff } 
	</style>
	<g id="Base">
		<path id="SVGID_1_" fill-rule="evenodd" class="s0" d="m66.6 0h58.9c53.8 0 66.5 12.8 66.5 66.6v58.9c0 53.8-12.8 66.5-66.6 66.5h-58.9c-53.8 0-66.5-12.8-66.5-66.6v-58.9c0-53.7 12.8-66.5 66.6-66.5z"/>
		<g id="Clip-Path" clip-path="url(#cp1)">
			<path class="s0" d="m-5-5h202v202h-202z"/>
		</g>
	</g>
	<path id="Logo" fill-rule="evenodd" class="s1" d="m157.2 66.1c0.9-3 0-5.1-4.2-5.1h-14c-3.6 0-5.2 1.9-6.1 4 0 0-7.1 17.4-17.2 28.6-3.3 3.3-4.7 4.3-6.5 4.3-0.9 0-2.2-1-2.2-4v-27.8c0-3.6-1-5.1-4-5.1h-22c-2.2 0-3.6 1.7-3.6 3.2 0 3.4 5 4.2 5.6 13.6v20.6c0 4.5-0.8 5.3-2.6 5.3-4.7 0-16.3-17.4-23.1-37.4-1.4-3.7-2.7-5.3-6.3-5.3h-14c-4 0-4.8 1.9-4.8 4 0 3.7 4.7 22.1 22.1 46.4 11.6 16.6 27.9 25.6 42.7 25.6 8.9 0 10-2 10-5.4v-12.6c0-4 0.8-4.8 3.7-4.8 2.1 0 5.6 1 13.9 9 9.5 9.5 11.1 13.8 16.4 13.8h14c4 0 6-2 4.8-5.9-1.3-3.9-5.8-9.6-11.8-16.4-3.3-3.9-8.2-8-9.6-10.1-2.1-2.7-1.5-3.9 0-6.2 0-0.1 17.1-24.1 18.8-32.3z"/>
</svg>